<?xml version="1.0" encoding="UTF-8" standalone="no"?><!-- Generator: Gravit.io --><svg xmlns="http://www.w3.org/2000/svg" xmlns:xlink="http://www.w3.org/1999/xlink" style="isolation:isolate" viewBox="0 0 200 60" width="200pt" height="60pt"><defs><clipPath id="_clipPath_5T7KmQ7nfZsVnjDSFrYJPQgsKlvzPcYo"><rect width="200" height="60"/></clipPath></defs><g clip-path="url(#_clipPath_5T7KmQ7nfZsVnjDSFrYJPQgsKlvzPcYo)"><clipPath id="_clipPath_uRJUCPl0WgTdSItY9vl1j65R59mdpYPS"><rect x="0" y="0" width="200" height="60" transform="matrix(1,0,0,1,0,0)" fill="rgb(255,255,255)"/></clipPath><g clip-path="url(#_clipPath_uRJUCPl0WgTdSItY9vl1j65R59mdpYPS)"><g><path d=" M 26.556 39.472 L 26.556 39.472 L 26.556 39.472 Q 24.864 41.416 22.38 42.55 L 22.38 42.55 L 22.38 42.55 Q 19.896 43.684 16.656 43.684 L 16.656 43.684 L 16.656 43.684 Q 13.704 43.684 11.202 42.712 L 11.202 42.712 L 11.202 42.712 Q 8.7 41.74 6.864 39.958 L 6.864 39.958 L 6.864 39.958 Q 5.028 38.176 3.984 35.692 L 3.984 35.692 L 3.984 35.692 Q 2.94 33.208 2.94 30.22 L 2.94 30.22 L 2.94 30.22 Q 2.94 27.16 4.002 24.676 L 4.002 24.676 L 4.002 24.676 Q 5.064 22.192 6.936 20.446 L 6.936 20.446 L 6.936 20.446 Q 8.808 18.7 11.328 17.764 L 11.328 17.764 L 11.328 17.764 Q 13.848 16.828 16.764 16.828 L 16.764 16.828 L 16.764 16.828 Q 19.464 16.828 22.074 17.782 L 22.074 17.782 L 22.074 17.782 Q 24.684 18.736 26.304 20.572 L 26.304 20.572 L 22.128 24.748 L 22.128 24.748 Q 21.264 23.56 19.86 22.984 L 19.86 22.984 L 19.86 22.984 Q 18.456 22.408 16.98 22.408 L 16.98 22.408 L 16.98 22.408 Q 15.36 22.408 14.01 23.002 L 14.01 23.002 L 14.01 23.002 Q 12.66 23.596 11.688 24.64 L 11.688 24.64 L 11.688 24.64 Q 10.716 25.684 10.176 27.106 L 10.176 27.106 L 10.176 27.106 Q 9.636 28.528 9.636 30.22 L 9.636 30.22 L 9.636 30.22 Q 9.636 31.948 10.176 33.388 L 10.176 33.388 L 10.176 33.388 Q 10.716 34.828 11.67 35.854 L 11.67 35.854 L 11.67 35.854 Q 12.624 36.88 13.956 37.456 L 13.956 37.456 L 13.956 37.456 Q 15.288 38.032 16.872 38.032 L 16.872 38.032 L 16.872 38.032 Q 18.708 38.032 20.076 37.312 L 20.076 37.312 L 20.076 37.312 Q 21.444 36.592 22.272 35.44 L 22.272 35.44 L 26.556 39.472 Z  M 38.796 35.8 L 38.796 35.188 L 38.04 35.188 L 38.04 35.188 Q 37.068 35.188 36.078 35.278 L 36.078 35.278 L 36.078 35.278 Q 35.088 35.368 34.314 35.62 L 34.314 35.62 L 34.314 35.62 Q 33.54 35.872 33.036 36.358 L 33.036 36.358 L 33.036 36.358 Q 32.532 36.844 32.532 37.636 L 32.532 37.636 L 32.532 37.636 Q 32.532 38.14 32.766 38.5 L 32.766 38.5 L 32.766 38.5 Q 33 38.86 33.36 39.076 L 33.36 39.076 L 33.36 39.076 Q 33.72 39.292 34.188 39.382 L 34.188 39.382 L 34.188 39.382 Q 34.656 39.472 35.088 39.472 L 35.088 39.472 L 35.088 39.472 Q 36.888 39.472 37.842 38.482 L 37.842 38.482 L 37.842 38.482 Q 38.796 37.492 38.796 35.8 L 38.796 35.8 Z  M 30.948 30.724 L 27.96 27.52 L 27.96 27.52 Q 29.544 26.008 31.65 25.252 L 31.65 25.252 L 31.65 25.252 Q 33.756 24.496 35.952 24.496 L 35.952 24.496 L 35.952 24.496 Q 38.22 24.496 39.786 25.054 L 39.786 25.054 L 39.786 25.054 Q 41.352 25.612 42.324 26.782 L 42.324 26.782 L 42.324 26.782 Q 43.296 27.952 43.746 29.734 L 43.746 29.734 L 43.746 29.734 Q 44.196 31.516 44.196 33.964 L 44.196 33.964 L 44.196 43 L 38.796 43 L 38.796 41.092 L 38.688 41.092 L 38.688 41.092 Q 38.004 42.208 36.618 42.82 L 36.618 42.82 L 36.618 42.82 Q 35.232 43.432 33.612 43.432 L 33.612 43.432 L 33.612 43.432 Q 32.532 43.432 31.38 43.144 L 31.38 43.144 L 31.38 43.144 Q 30.228 42.856 29.274 42.208 L 29.274 42.208 L 29.274 42.208 Q 28.32 41.56 27.708 40.48 L 27.708 40.48 L 27.708 40.48 Q 27.096 39.4 27.096 37.816 L 27.096 37.816 L 27.096 37.816 Q 27.096 35.872 28.158 34.684 L 28.158 34.684 L 28.158 34.684 Q 29.22 33.496 30.894 32.848 L 30.894 32.848 L 30.894 32.848 Q 32.568 32.2 34.62 31.984 L 34.62 31.984 L 34.62 31.984 Q 36.672 31.768 38.616 31.768 L 38.616 31.768 L 38.616 31.48 L 38.616 31.48 Q 38.616 30.148 37.68 29.518 L 37.68 29.518 L 37.68 29.518 Q 36.744 28.888 35.376 28.888 L 35.376 28.888 L 35.376 28.888 Q 34.116 28.888 32.946 29.428 L 32.946 29.428 L 32.946 29.428 Q 31.776 29.968 30.948 30.724 L 30.948 30.724 Z  M 60.468 24.712 L 60.216 29.931 L 60.216 29.931 Q 59.82 29.823 59.442 29.788 L 59.442 29.788 L 59.442 29.788 Q 59.064 29.752 58.704 29.752 L 58.704 29.752 L 58.704 29.752 Q 57.516 29.752 56.706 30.183 L 56.706 30.183 L 56.706 30.183 Q 55.896 30.614 55.41 31.224 L 55.41 31.224 L 55.41 31.224 Q 54.924 31.834 54.708 32.552 L 54.708 32.552 L 54.708 32.552 Q 54.492 33.27 54.492 33.809 L 54.492 33.809 L 54.492 43 L 48.588 43 L 48.588 25.091 L 54.276 25.091 L 54.276 27.686 L 54.348 27.686 L 54.348 27.686 Q 55.032 26.308 56.292 25.438 L 56.292 25.438 L 56.292 25.438 Q 57.552 24.568 59.208 24.568 L 59.208 24.568 L 59.208 24.568 Q 59.568 24.568 59.91 24.604 L 59.91 24.604 L 59.91 24.604 Q 60.252 24.64 60.468 24.712 L 60.468 24.712 Z  M 72.852 35.8 L 72.852 35.188 L 72.096 35.188 L 72.096 35.188 Q 71.124 35.188 70.134 35.278 L 70.134 35.278 L 70.134 35.278 Q 69.144 35.368 68.37 35.62 L 68.37 35.62 L 68.37 35.62 Q 67.596 35.872 67.092 36.358 L 67.092 36.358 L 67.092 36.358 Q 66.588 36.844 66.588 37.636 L 66.588 37.636 L 66.588 37.636 Q 66.588 38.14 66.822 38.5 L 66.822 38.5 L 66.822 38.5 Q 67.056 38.86 67.416 39.076 L 67.416 39.076 L 67.416 39.076 Q 67.776 39.292 68.244 39.382 L 68.244 39.382 L 68.244 39.382 Q 68.712 39.472 69.144 39.472 L 69.144 39.472 L 69.144 39.472 Q 70.944 39.472 71.898 38.482 L 71.898 38.482 L 71.898 38.482 Q 72.852 37.492 72.852 35.8 L 72.852 35.8 Z  M 65.004 30.724 L 62.016 27.52 L 62.016 27.52 Q 63.6 26.008 65.706 25.252 L 65.706 25.252 L 65.706 25.252 Q 67.812 24.496 70.008 24.496 L 70.008 24.496 L 70.008 24.496 Q 72.276 24.496 73.842 25.054 L 73.842 25.054 L 73.842 25.054 Q 75.408 25.612 76.38 26.782 L 76.38 26.782 L 76.38 26.782 Q 77.352 27.952 77.802 29.734 L 77.802 29.734 L 77.802 29.734 Q 78.252 31.516 78.252 33.964 L 78.252 33.964 L 78.252 43 L 72.852 43 L 72.852 41.092 L 72.744 41.092 L 72.744 41.092 Q 72.06 42.208 70.674 42.82 L 70.674 42.82 L 70.674 42.82 Q 69.288 43.432 67.668 43.432 L 67.668 43.432 L 67.668 43.432 Q 66.588 43.432 65.436 43.144 L 65.436 43.144 L 65.436 43.144 Q 64.284 42.856 63.33 42.208 L 63.33 42.208 L 63.33 42.208 Q 62.376 41.56 61.764 40.48 L 61.764 40.48 L 61.764 40.48 Q 61.152 39.4 61.152 37.816 L 61.152 37.816 L 61.152 37.816 Q 61.152 35.872 62.214 34.684 L 62.214 34.684 L 62.214 34.684 Q 63.276 33.496 64.95 32.848 L 64.95 32.848 L 64.95 32.848 Q 66.624 32.2 68.676 31.984 L 68.676 31.984 L 68.676 31.984 Q 70.728 31.768 72.672 31.768 L 72.672 31.768 L 72.672 31.48 L 72.672 31.48 Q 72.672 30.148 71.736 29.518 L 71.736 29.518 L 71.736 29.518 Q 70.8 28.888 69.432 28.888 L 69.432 28.888 L 69.432 28.888 Q 68.172 28.888 67.002 29.428 L 67.002 29.428 L 67.002 29.428 Q 65.832 29.968 65.004 30.724 L 65.004 30.724 Z  M 111.444 43 L 105.54 43 L 105.54 33.208 L 105.54 33.208 Q 105.54 32.452 105.432 31.75 L 105.432 31.75 L 105.432 31.75 Q 105.324 31.048 105.036 30.544 L 105.036 30.544 L 105.036 30.544 Q 104.748 30.04 104.262 29.734 L 104.262 29.734 L 104.262 29.734 Q 103.776 29.428 102.984 29.428 L 102.984 29.428 L 102.984 29.428 Q 102.228 29.428 101.67 29.752 L 101.67 29.752 L 101.67 29.752 Q 101.112 30.076 100.734 30.616 L 100.734 30.616 L 100.734 30.616 Q 100.356 31.156 100.176 31.858 L 100.176 31.858 L 100.176 31.858 Q 99.996 32.56 99.996 33.316 L 99.996 33.316 L 99.996 43 L 94.092 43 L 94.092 32.776 L 94.092 32.776 Q 94.092 31.228 93.48 30.328 L 93.48 30.328 L 93.48 30.328 Q 92.868 29.428 91.536 29.428 L 91.536 29.428 L 91.536 29.428 Q 90.132 29.428 89.358 30.544 L 89.358 30.544 L 89.358 30.544 Q 88.584 31.66 88.584 33.28 L 88.584 33.28 L 88.584 43 L 82.644 43 L 82.644 25.072 L 88.368 25.072 L 88.368 27.556 L 88.44 27.556 L 88.44 27.556 Q 88.764 26.98 89.25 26.44 L 89.25 26.44 L 89.25 26.44 Q 89.736 25.9 90.42 25.486 L 90.42 25.486 L 90.42 25.486 Q 91.104 25.072 91.95 24.82 L 91.95 24.82 L 91.95 24.82 Q 92.796 24.568 93.804 24.568 L 93.804 24.568 L 93.804 24.568 Q 95.748 24.568 97.098 25.36 L 97.098 25.36 L 97.098 25.36 Q 98.448 26.152 99.204 27.628 L 99.204 27.628 L 99.204 27.628 Q 100.104 26.224 101.508 25.396 L 101.508 25.396 L 101.508 25.396 Q 102.912 24.568 104.928 24.568 L 104.928 24.568 L 104.928 24.568 Q 106.764 24.568 108.006 25.234 L 108.006 25.234 L 108.006 25.234 Q 109.248 25.9 110.004 26.962 L 110.004 26.962 L 110.004 26.962 Q 110.76 28.024 111.102 29.338 L 111.102 29.338 L 111.102 29.338 Q 111.444 30.652 111.444 31.912 L 111.444 31.912 L 111.444 43 Z  M 120.66 31.984 L 128.256 31.984 L 128.256 31.984 Q 128.256 30.58 127.374 29.572 L 127.374 29.572 L 127.374 29.572 Q 126.492 28.564 124.728 28.564 L 124.728 28.564 L 124.728 28.564 Q 123.864 28.564 123.144 28.834 L 123.144 28.834 L 123.144 28.834 Q 122.424 29.104 121.884 29.572 L 121.884 29.572 L 121.884 29.572 Q 121.344 30.04 121.02 30.67 L 121.02 30.67 L 121.02 30.67 Q 120.696 31.3 120.66 31.984 L 120.66 31.984 Z  M 133.692 34.252 L 133.692 34.252 L 133.692 34.252 Q 133.692 34.612 133.692 34.972 L 133.692 34.972 L 133.692 34.972 Q 133.692 35.332 133.656 35.656 L 133.656 35.656 L 120.66 35.656 L 120.66 35.656 Q 120.732 36.412 121.11 37.024 L 121.11 37.024 L 121.11 37.024 Q 121.488 37.636 122.082 38.086 L 122.082 38.086 L 122.082 38.086 Q 122.676 38.536 123.414 38.788 L 123.414 38.788 L 123.414 38.788 Q 124.152 39.04 124.944 39.04 L 124.944 39.04 L 124.944 39.04 Q 126.348 39.04 127.32 38.518 L 127.32 38.518 L 127.32 38.518 Q 128.292 37.996 128.904 37.168 L 128.904 37.168 L 133.008 39.76 L 133.008 39.76 Q 131.748 41.596 129.678 42.586 L 129.678 42.586 L 129.678 42.586 Q 127.608 43.576 124.872 43.576 L 124.872 43.576 L 124.872 43.576 Q 122.856 43.576 121.056 42.946 L 121.056 42.946 L 121.056 42.946 Q 119.256 42.316 117.906 41.11 L 117.906 41.11 L 117.906 41.11 Q 116.556 39.904 115.782 38.14 L 115.782 38.14 L 115.782 38.14 Q 115.008 36.376 115.008 34.108 L 115.008 34.108 L 115.008 34.108 Q 115.008 31.912 115.764 30.13 L 115.764 30.13 L 115.764 30.13 Q 116.52 28.348 117.816 27.106 L 117.816 27.106 L 117.816 27.106 Q 119.112 25.864 120.876 25.18 L 120.876 25.18 L 120.876 25.18 Q 122.64 24.496 124.692 24.496 L 124.692 24.496 L 124.692 24.496 Q 126.672 24.496 128.328 25.162 L 128.328 25.162 L 128.328 25.162 Q 129.984 25.828 131.172 27.088 L 131.172 27.088 L 131.172 27.088 Q 132.36 28.348 133.026 30.148 L 133.026 30.148 L 133.026 30.148 Q 133.692 31.948 133.692 34.252 Z  M 143.448 43 L 137.436 43 L 137.436 15.784 L 143.448 15.784 L 143.448 43 Z  M 154.5 19.348 L 154.5 19.348 L 154.5 19.348 Q 154.5 20.032 154.23 20.626 L 154.23 20.626 L 154.23 20.626 Q 153.96 21.22 153.51 21.652 L 153.51 21.652 L 153.51 21.652 Q 153.06 22.084 152.43 22.336 L 152.43 22.336 L 152.43 22.336 Q 151.8 22.588 151.116 22.588 L 151.116 22.588 L 151.116 22.588 Q 149.676 22.588 148.704 21.634 L 148.704 21.634 L 148.704 21.634 Q 147.732 20.68 147.732 19.348 L 147.732 19.348 L 147.732 19.348 Q 147.732 18.7 147.984 18.106 L 147.984 18.106 L 147.984 18.106 Q 148.236 17.512 148.704 17.08 L 148.704 17.08 L 148.704 17.08 Q 149.172 16.648 149.784 16.378 L 149.784 16.378 L 149.784 16.378 Q 150.396 16.108 151.116 16.108 L 151.116 16.108 L 151.116 16.108 Q 151.8 16.108 152.43 16.36 L 152.43 16.36 L 152.43 16.36 Q 153.06 16.612 153.51 17.044 L 153.51 17.044 L 153.51 17.044 Q 153.96 17.476 154.23 18.07 L 154.23 18.07 L 154.23 18.07 Q 154.5 18.664 154.5 19.348 Z  M 154.068 43 L 148.164 43 L 148.164 25.072 L 154.068 25.072 L 154.068 43 Z  M 173.652 43 L 157.668 43 L 157.668 38.392 L 166.092 29.608 L 157.992 29.608 L 157.992 25.072 L 173.292 25.072 L 173.292 29.5 L 164.616 38.428 L 173.652 38.428 L 173.652 43 Z  M 181.932 31.984 L 189.528 31.984 L 189.528 31.984 Q 189.528 30.58 188.646 29.572 L 188.646 29.572 L 188.646 29.572 Q 187.764 28.564 186 28.564 L 186 28.564 L 186 28.564 Q 185.136 28.564 184.416 28.834 L 184.416 28.834 L 184.416 28.834 Q 183.696 29.104 183.156 29.572 L 183.156 29.572 L 183.156 29.572 Q 182.616 30.04 182.292 30.67 L 182.292 30.67 L 182.292 30.67 Q 181.968 31.3 181.932 31.984 L 181.932 31.984 Z  M 194.964 34.252 L 194.964 34.252 L 194.964 34.252 Q 194.964 34.612 194.964 34.972 L 194.964 34.972 L 194.964 34.972 Q 194.964 35.332 194.928 35.656 L 194.928 35.656 L 181.932 35.656 L 181.932 35.656 Q 182.004 36.412 182.382 37.024 L 182.382 37.024 L 182.382 37.024 Q 182.76 37.636 183.354 38.086 L 183.354 38.086 L 183.354 38.086 Q 183.948 38.536 184.686 38.788 L 184.686 38.788 L 184.686 38.788 Q 185.424 39.04 186.216 39.04 L 186.216 39.04 L 186.216 39.04 Q 187.62 39.04 188.592 38.518 L 188.592 38.518 L 188.592 38.518 Q 189.564 37.996 190.176 37.168 L 190.176 37.168 L 194.28 39.76 L 194.28 39.76 Q 193.02 41.596 190.95 42.586 L 190.95 42.586 L 190.95 42.586 Q 188.88 43.576 186.144 43.576 L 186.144 43.576 L 186.144 43.576 Q 184.128 43.576 182.328 42.946 L 182.328 42.946 L 182.328 42.946 Q 180.528 42.316 179.178 41.11 L 179.178 41.11 L 179.178 41.11 Q 177.828 39.904 177.054 38.14 L 177.054 38.14 L 177.054 38.14 Q 176.28 36.376 176.28 34.108 L 176.28 34.108 L 176.28 34.108 Q 176.28 31.912 177.036 30.13 L 177.036 30.13 L 177.036 30.13 Q 177.792 28.348 179.088 27.106 L 179.088 27.106 L 179.088 27.106 Q 180.384 25.864 182.148 25.18 L 182.148 25.18 L 182.148 25.18 Q 183.912 24.496 185.964 24.496 L 185.964 24.496 L 185.964 24.496 Q 187.944 24.496 189.6 25.162 L 189.6 25.162 L 189.6 25.162 Q 191.256 25.828 192.444 27.088 L 192.444 27.088 L 192.444 27.088 Q 193.632 28.348 194.298 30.148 L 194.298 30.148 L 194.298 30.148 Q 194.964 31.948 194.964 34.252 Z " fill-rule="evenodd" fill="rgb(255,255,255)"/></g></g></g></svg>